<svg id="Calque_1" data-name="Calque 1" xmlns="http://www.w3.org/2000/svg" viewBox="0 0 637.6 327.1"><defs><style>.cls-1{fill:#1d1d1b;}</style></defs><path class="cls-1" d="M361.3,224.9a21.2,21.2,0,0,0-6.5-15.4,21.6,21.6,0,0,0-15.9-6.5h-2.8c-.7,0-1.1.3-1.1.9v87a1,1,0,0,0,1.1,1.1h2.8a1.1,1.1,0,0,0,1.1-1.1V246.7a21.9,21.9,0,0,0,14.5-6.4A20.7,20.7,0,0,0,361.3,224.9ZM340,242V207.6a15.8,15.8,0,0,1,11.1,5.2A17.1,17.1,0,0,1,340,242Z"/><path class="cls-1" d="M369.7,50h6.1a.2.2,0,0,0,.2-.2l15.1-13,15.1,13,.3.2h5.9a.4.4,0,0,0,.3-.4c.1-.1,0-.3-.1-.4l-19-16.8-.2-.4H389c-.1,0-.1.3-.2.3L369.5,49a.6.6,0,0,0-.1.6C369.4,49.7,369.6,50,369.7,50Z"/><path class="cls-1" d="M431.1,75.1a56.4,56.4,0,0,0-79.9,0c-11.1,11-16.7,24.3-16.7,39.3s5.5,28.4,16.5,39.7S375,171,389.9,171h2.2c15.1,0,28.2-5.7,39.1-16.9s16.4-24.5,16.4-39.7S442,86,431.1,75.1Zm-40-11.6a49.3,49.3,0,0,1,36.1,15,51.4,51.4,0,0,1-.1,72.5c-10,10-22.1,15.1-36,15.1A49.4,49.4,0,0,1,355,151a50.3,50.3,0,0,1-15-36.3c0-14,5.1-26.1,15-36.2A49.3,49.3,0,0,1,391.1,63.5Z"/><path class="cls-1" d="M451.2,182.7c-4.4-4.9-9.7-7.4-15.9-7.4a21.1,21.1,0,0,0-15.5,6.3,20,20,0,0,0-6.3,14.7,20.9,20.9,0,0,0,6.3,15.1,20.3,20.3,0,0,0,14.9,6.6h.8c6,0,11.1-2.5,15.3-7.2a1.3,1.3,0,0,0,.2-.9v-4.3a1.1,1.1,0,0,0-.7-1.1,1,1,0,0,0-1.2.5,19.8,19.8,0,0,1-6.3,5.9,17,17,0,0,1-8.5,2.1,15.6,15.6,0,0,1-8.9-3.3l25.7-25.5A1,1,0,0,0,451.2,182.7ZM422,206.3a16.4,16.4,0,0,1-3.5-10.2,15,15,0,0,1,4.9-11.2,15.3,15.3,0,0,1,11.2-4.9,16.7,16.7,0,0,1,10.3,3.5Z"/><path class="cls-1" d="M420,137.1v-2.5c0-.6-.4-1.6-1-1.6H387c-.7,0-1,1-1,1.6v2.5c0,.6.3.9,1,.9h14v77.5c0,.7,0,1.5.7,1.5h2.8a1.8,1.8,0,0,0,1.5-1.5V138h13C419.6,138,420,137.7,420,137.1Z"/><path class="cls-1" d="M513.9,216.7h-2.7a1.1,1.1,0,0,1-1.1-1.2V190.2a10.3,10.3,0,0,0-2.9-7.4,9.4,9.4,0,0,0-7-2.9,10.1,10.1,0,0,0-7.3,3.1,9.4,9.4,0,0,0-3.2,7v25.5a1.1,1.1,0,0,1-1.1,1.2h-2.7a1.2,1.2,0,0,1-1.2-1.2V190a9.7,9.7,0,0,0-2.9-7.1,9.2,9.2,0,0,0-7-3,10.2,10.2,0,0,0-7.2,3,9.9,9.9,0,0,0-3,7.1v25.5a1.2,1.2,0,0,1-1.2,1.2h-2.7a1.1,1.1,0,0,1-1.1-1.2V177.3a1.1,1.1,0,0,1,1.1-1.1h2.7a1.1,1.1,0,0,1,1.2,1.1v2.3a31.4,31.4,0,0,1,3.3-2.4c4.9-2.7,10.4-2.8,15.2.8a15.1,15.1,0,0,1,4.1,4.6,12.8,12.8,0,0,1,4.3-4.7,16,16,0,0,1,9.4-2.7,13.8,13.8,0,0,1,9.9,4.1,14.6,14.6,0,0,1,4.3,10.9v25.3A1.2,1.2,0,0,1,513.9,216.7Z"/><path class="cls-1" d="M559.3,181.5a20.4,20.4,0,0,0-15.1-6.3,20.9,20.9,0,0,0-10.7,3c-2.2,1.2-4.5,2.8-5.5,4.6v-5.5a1.3,1.3,0,0,0-1.2-1.3h-2.7a1.3,1.3,0,0,0-1.1,1.3V226a1,1,0,0,0,1.1,1h2.7c.7,0,1.2-.3,1.2-1V210c2,1.8,3.4,3.4,5.7,4.7a21.3,21.3,0,0,0,10.5,2.9,21.2,21.2,0,0,0,21.3-21.2A20.4,20.4,0,0,0,559.3,181.5Zm-3.5,26.6a15.4,15.4,0,0,1-11.5,4.9,16.4,16.4,0,0,1-11.6-28.1,15.5,15.5,0,0,1,11.6-5,15.3,15.3,0,0,1,11.4,4.9,15.7,15.7,0,0,1,4.8,11.7A15.9,15.9,0,0,1,555.8,208.1Z"/><path class="cls-1" d="M580.7,217.6a14.5,14.5,0,0,1-6.8-1.6,12.1,12.1,0,0,1-4.8-4.4,4.3,4.3,0,0,0-.1-.5V207a1.1,1.1,0,0,1,.9-1.1,1.1,1.1,0,0,1,1.3.6c1.9,4.4,5,6.5,9.3,6.5a9.5,9.5,0,0,0,6.7-2.5,7.1,7.1,0,0,0,2.6-5.2,7.3,7.3,0,0,0-1.7-4.9,15.3,15.3,0,0,0-4.3-3.6l-5.4-3.2a19,19,0,0,1-4.8-4.1,8.7,8.7,0,0,1-2.2-6,7.4,7.4,0,0,1,2.8-5.9,10.3,10.3,0,0,1,7-2.4,9.4,9.4,0,0,1,7.3,3.4.9.9,0,0,1,.3.7v3.5a1.1,1.1,0,0,1-.8,1.1,1,1,0,0,1-1.2-.5,6.9,6.9,0,0,0-6-3.5,4.9,4.9,0,0,0-3.1,1.1,3.5,3.5,0,0,0-1.3,2.7,4.3,4.3,0,0,0,1.5,3.1,21.4,21.4,0,0,0,4.4,3.1l5.4,3.2a17.9,17.9,0,0,1,4.9,4.6,10.8,10.8,0,0,1,2.2,6.7,12.3,12.3,0,0,1-4.2,9.4A14.1,14.1,0,0,1,580.7,217.6Z"/><path class="cls-1" d="M535.3,266a19.2,19.2,0,0,0-3.9-5.3l-5.1-3.9c-1.9-1.2-3.7-2.3-5.6-3.3s-3.5-2.1-4.9-3.1c-3.1-2.3-4.8-4.8-4.8-7.5v-.4a6.9,6.9,0,0,1,2.3-5.2,7.8,7.8,0,0,1,5.4-1.9,11.4,11.4,0,0,1,5.8,1.5,12.6,12.6,0,0,1,4.2,4.4,1.2,1.2,0,0,0,1.3.6,1.3,1.3,0,0,0,1-1.1v-3.7a1.5,1.5,0,0,0-.3-.7,14.2,14.2,0,0,0-11.6-5.4,13.3,13.3,0,0,0-8.6,2.9c-2.4,2-3.5,5-3.5,8.7v.5a11.4,11.4,0,0,0,1.9,6.7,15.6,15.6,0,0,0,5,4.9l6.1,3.9,6.1,4.1a15.8,15.8,0,0,1,4.3,4.6,11.6,11.6,0,0,1,1.6,6.1v.4a10.7,10.7,0,0,1-3.5,8.5,12.9,12.9,0,0,1-8.6,3.2,14.4,14.4,0,0,1-8.5-2.4,15,15,0,0,1-5.1-6.3,1.2,1.2,0,0,0-1.4-.6,1.2,1.2,0,0,0-.9,1.1v3.9a1.9,1.9,0,0,0,.2.7,17.4,17.4,0,0,0,15.1,8,18.9,18.9,0,0,0,12.5-4.4,15.3,15.3,0,0,0,5.2-11.9v-.7A16,16,0,0,0,535.3,266Z"/><path class="cls-1" d="M562.1,247.5a21,21,0,0,0-15.1,6.2,20.6,20.6,0,0,0-6.3,14.8,20.9,20.9,0,0,0,6.2,15,19.9,19.9,0,0,0,14.9,6.5h.7a19.9,19.9,0,0,0,14.9-6.5,21,21,0,0,0,6.1-14.9,20.4,20.4,0,0,0-6.3-14.9A20.7,20.7,0,0,0,562.1,247.5Zm16.4,21.2a15.9,15.9,0,0,1-4.8,11.6,15.4,15.4,0,0,1-11.5,4.9,16.7,16.7,0,0,1-16.5-16.4,16.9,16.9,0,0,1,16.5-16.7,15.2,15.2,0,0,1,11.5,5A16,16,0,0,1,578.5,268.7Z"/><path class="cls-1" d="M591.2,234.6c-2.3,0-3.6,1.2-3.6,3.4s1.3,3.4,3.6,3.4a3.3,3.3,0,0,0,3.6-3.4C594.8,235.8,593.4,234.6,591.2,234.6Z"/><rect class="cls-1" x="589" y="249" width="5" height="40" rx="1.1"/><path class="cls-1" d="M470.5,250.4a14.9,14.9,0,0,0-16.3-.9l-3.2,2.3v-2.2c0-.7-.2-1.6-.8-1.6h-2.7a1.8,1.8,0,0,0-1.5,1.6v38.2c0,.6.8,1.2,1.5,1.2h2.7c.6,0,.8-.6.8-1.2V262.3a11,11,0,0,1,10.5-10.2,10.4,10.4,0,0,1,7.5,3.4,1,1,0,0,0,1.2.3,1.2,1.2,0,0,0,.8-1.1v-3.4A1.2,1.2,0,0,0,470.5,250.4Z"/><path class="cls-1" d="M437.6,248h-2.7c-.6,0-.9.9-.9,1.6v22.2a13,13,0,0,1-4.2,9.4,13.4,13.4,0,0,1-9.6,4,12.4,12.4,0,0,1-9.3-4,13.3,13.3,0,0,1-3.9-9.4V249.6c0-.7-.3-1.6-1-1.6h-2.7c-.6,0-1.3.9-1.3,1.6v22.2a18.1,18.1,0,0,0,18.2,18.1c5.9,0,10.8-2,13.8-5.9v3.8c0,.6.3,1.2.9,1.2h2.7a1.4,1.4,0,0,0,1.4-1.2V249.6A1.7,1.7,0,0,0,437.6,248Z"/><path class="cls-1" d="M376.1,247.5a21.1,21.1,0,0,0-15.2,6.2,20.6,20.6,0,0,0-6.3,14.8,20.9,20.9,0,0,0,6.2,15,19.9,19.9,0,0,0,14.9,6.5h.7a19.9,19.9,0,0,0,14.9-6.5,21,21,0,0,0,6.1-14.9,21.3,21.3,0,0,0-21.3-21.1Zm16.3,21.2a16,16,0,0,1-4.8,11.6,15.4,15.4,0,0,1-11.5,4.9,16.7,16.7,0,0,1-16.5-16.4,16.1,16.1,0,0,1,4.9-11.7,15.8,15.8,0,0,1,11.6-5,15.2,15.2,0,0,1,11.5,5A16,16,0,0,1,392.4,268.7Z"/><path class="cls-1" d="M302.6,22.8a4.7,4.7,0,0,0-.1-4.7c-1.1-1.7-3.3-2.6-6.1-2.6s-6.7,1.2-8.5,3.6l-2.7.2c-6.2.8-10.8,3.8-12.6,8.1a4.9,4.9,0,0,0,0,4.5,5.5,5.5,0,0,0,3.1,2.4c1.9,10.7,1,22.2.2,33.4s-1.9,24.1.4,35.8c.1.3.1.5.2.8a12.9,12.9,0,0,0-1.9,3.2,9.3,9.3,0,0,0-.4,1.3,71,71,0,0,0-11.3-17.5V91l-.4-1.1v-.3c1.5-4.6,3.3-9.8,2.7-10.6h-.3a27.4,27.4,0,0,0-5.5,1.5l-6.5,2.1H252a2.2,2.2,0,0,1-1.7-.7,1.7,1.7,0,0,1-.3-1.4c.6-2.8.5-10,.5-15.7,0-3-.1-5.2,0-6.7l-9.3,10.7a2.6,2.6,0,0,1-1.9.8,1.9,1.9,0,0,1-2-1.6V66.7c-.7-5.1-1.7-13.2-.1-18.9a176,176,0,0,0-18.8,17.8,2.9,2.9,0,0,1-1.8.7,2,2,0,0,1-2-1.4c-.8-2.2-1.3-3.9-1.7-5.2l-.7-2a8.4,8.4,0,0,1-5.8,3.4,30,30,0,0,1-6.2.5c-3.4,0-7-.4-10.4-.7a94.5,94.5,0,0,0-10.6-.8,38.8,38.8,0,0,0-7,.6c-9.7,1.9-22.3,5.1-32.8,12.3a53.8,53.8,0,0,0-4.5,4.3c-3.3,3.3-7,7.1-9.9,7.6l-2.1.2a19.1,19.1,0,0,1-6.1-1.3,7.8,7.8,0,0,0-1.9-.6c-.2.1-.5.9.4,5.3a1.7,1.7,0,0,1-.4,1.5,2.5,2.5,0,0,1-1.9.8h-.5l-2.9-.7a38.7,38.7,0,0,0-6.5-1.3c.3.8,1.6,2.8,2.4,4.2s2.1,3.2,3.3,5.2a1.7,1.7,0,0,1,0,1.7,2.4,2.4,0,0,1-2,1.2h-.3c-4.4-.4-7-.7-8.5-.7h-.2l.7.8a26.1,26.1,0,0,1,5.6,10.2c1.1,3.9,1.7,7.5,2.4,11s1.3,6.7,2.2,9.9a28.7,28.7,0,0,1,5.7-13.9c16.5-22.8,51.6-24.7,77.3-26.1l9.1-.6h.4l1.6,1.1v.4c1,7.1,1.5,8.9,2.8,8.9s2.9-.8,5.6-1.8l3.2-1.3,1-.2a1.9,1.9,0,0,1,2,1.5l.3,2.6c1,7.1,1.4,8.5,3.2,8.5s4.1-.9,8.1-2.4l1.1-.4,2.2.5.2.2c14.6,18.5,48.9,61.7,31.8,90.5a24,24,0,0,1-7.2,7.7l7.1-1.9a119.1,119.1,0,0,1,12.1-3.1h0c.1.3.1.6.2.8a13.5,13.5,0,0,0-1.9,3.3l-.3.8a1.3,1.3,0,0,1-.6-.7c-3.5.8-7,1.8-10.5,2.7-6.5,1.9-13.3,3.9-20.3,3.9a25.6,25.6,0,0,1-3.9-.3h-.3l-.5-.2c-20.5.5-46.6-10.6-58.9-15.9l-1.3-.5c-9.1-4.3-28-13.1-43.7-24.6H134a53.8,53.8,0,0,0-18.9-3.7l-1.7-.2h0l-2.2.3-.2.2A50.4,50.4,0,0,0,90.1,175h.2L87,177.1l-1.8,1.3,1.8-1.3c-2.4,1.8-5,3.5-12.2,9.5-2.3,1.8-4.4,4.6-5.9,5.9l5-1.7a73.7,73.7,0,0,1,15.4-3.3h0l2.2-.2h1.8l5.7-.2c10.4,0,21.9,1.7,35.1,5.2,23.5,6.2,45.2,21.3,59.3,32.9,3.3,2.6,6.5,5.5,9.8,8.5,9.8,8.8,19.9,17.8,31.6,22a53.3,53.3,0,0,0,17.6,3.2c11.7,0,20.7-4.5,26.7-10.5V248a6.7,6.7,0,0,0,1.4-1.5h0a29.1,29.1,0,0,0,6.2-11.2,23.5,23.5,0,0,0-.8-15.1h0l-.9-1.9h0a27.7,27.7,0,0,0-3.1-4.5,9,9,0,0,0,6.5-3.5l2.4-.2c5.8-.8,10.1-3.8,11.8-8.2a5,5,0,0,0-.3-4.8,5.8,5.8,0,0,0-4.4-2.3.4.4,0,0,1-.1-.3c-2.2-11.1-1.3-22.6-.5-33.7s1.7-21.8-.1-32.8a11.9,11.9,0,0,0,5.4-6.1,5,5,0,0,0-.3-4.8c-1.1-1.6-3.1-2.4-5.6-2.4s-6.4,1.1-8,3.6a9.7,9.7,0,0,0-2.4.2,17.2,17.2,0,0,0-7.6,2.8c-.7-2.6-1.6-5.2-2.5-7.6a7.7,7.7,0,0,0,4.2,1.1c2.9,0,6.3-1.2,8-3.6l2.4-.2c5.8-.8,10.1-3.8,11.8-8.2a5,5,0,0,0-.3-4.8,5.9,5.9,0,0,0-4.4-2.4.4.4,0,0,1-.1-.3c-2.2-11.1-1.3-22.5-.5-33.7s1.7-21.9-.2-32.9A12.2,12.2,0,0,0,302.6,22.8Zm-15.7,99.6h3.2l1.9-.2v-1.4c.7-1.1,2.7-1.9,4.8-1.9a3.7,3.7,0,0,1,2.3.6,1.5,1.5,0,0,1-.1,1.1,8.5,8.5,0,0,1-4.8,4.7l-1.4.6.3,1.6c2,10.9,1.2,22.2.3,33.2s-1.7,23.1.6,34.7a1.9,1.9,0,0,1-.1.8l-1.2,3.1,3.3-.4h.8a3,3,0,0,1,2.3.7,1.5,1.5,0,0,1-.1,1.1c-1.7,4.3-6.6,5.4-8.6,5.6l-2.2.2h-1.1l-1.8.2V208c-.7,1-2.8,1.9-4.8,1.9s-2.1-.4-2.3-.7a1.5,1.5,0,0,1,.1-1.1,6.6,6.6,0,0,1,2.1-2.9l1.5-1.4-1.4-1.5c-.2-.1-.2-.2-.3-.4l3.1-.6a12.1,12.1,0,0,0-1-1.4,46.5,46.5,0,0,1-3-3.9c-.1-1-.1-2-.2-2.9a2.3,2.3,0,0,1,1.4-.8c3.1-.3,7.8-.8,8.2-1.5s-1.7-2.4-3.1-4-2.4-2.6-3.9-4.4a2,2,0,0,1-.4-1.6,2,2,0,0,1,1.3-1.4c2.4-.8,3.1-1.4,3.2-1.7s-.3-1.3-.8-2.2-2.5-4.4-2.3-8.2c.9-16-.1-29.7-2.8-41.6A12.5,12.5,0,0,1,286.9,122.4ZM299,21.3a8.7,8.7,0,0,1-4.8,4.4l-1.5.7.3,1.5c2.1,11.1,1.3,22.4.4,33.4s-1.7,23.2.6,34.8a2.2,2.2,0,0,1-.1.8l-1.2,3,3.3-.3h.8c1.3,0,2.1.3,2.3.6a1.5,1.5,0,0,1-.1,1.1c-1.7,4.3-6.6,5.4-8.6,5.7l-2.2.2h-1.1l-1.8.2v1.4c-.7,1.1-2.8,2-4.8,2s-2.1-.4-2.3-.7a1.5,1.5,0,0,1,.1-1.1,6.6,6.6,0,0,1,2.1-2.9l1.5-1.4-1.4-1.5c-.2-.1-.2-.3-.3-.5-2.2-11.1-1.3-23.1-.4-34.7s1.9-24.1-.4-35.7l-.3-1.4-1.4-.2a3.3,3.3,0,0,1-1.6-.7c-.1-.2,0-.5.2-1,1.8-4.3,7.2-5.4,9.4-5.7l2.4-.2h1.1l1.9-.2V21.5c.7-1.1,3-2,5.3-2a3.6,3.6,0,0,1,2.7.8C299.2,20.4,299.2,20.8,299,21.3Z"/><path class="cls-1" d="M334.6,18.9a2.8,2.8,0,0,0-2-.8c-.9,0-3.7.5-4.2,2.4-2.8,10.7-9.2,15.9-17.2,22.4l-2.8,2.2c-5.8,4.9-6.6,10.9-2.1,17.4a2.6,2.6,0,0,0,2.3,1.1H310c6.9-2,15.3-5.4,20.5-14.6,3.8-6.9,4.1-15.6,4.4-23.2.1-1.8.1-3.5.3-5.1A2.3,2.3,0,0,0,334.6,18.9Zm-7.6,28c-3.4,6.1-9,10-17.9,12.6-2.7-4.5-2.1-8,1.9-11.3l2.7-2.2c7.3-5.9,13.6-11.1,17.2-20.3C330.6,33.2,330.3,40.9,327,46.9Z"/><path class="cls-1" d="M79.2,164h0a28.6,28.6,0,0,0,4.8-.6c1.5-.2,3.2-1,3.5-2.6,1.4-8.3,2.5-20.3-4.8-29.5-5.7-7.2-13.5-11.6-21.1-15.8l-4-2.3a3.2,3.2,0,0,0-1.4-.3c-.8,0-3.6.3-4.2,2.1a2.3,2.3,0,0,0,.5,2.5c5.9,5.2,9.6,11.5,11.9,19.5a60.7,60.7,0,0,1,1.6,8.5,61.6,61.6,0,0,0,2.3,11C70,161.3,73.8,164,79.2,164ZM68.3,135.9a45.1,45.1,0,0,0-8.8-17h.1c7.3,4,14.8,8.2,20,14.8s6,14,4.1,25.4h-.4a22.5,22.5,0,0,1-4.1.6h0c-3.7,0-6-1.6-7.1-4.8A54.8,54.8,0,0,1,70,145.1,59.4,59.4,0,0,0,68.3,135.9Z"/><path class="cls-1" d="M55.5,135.2a38.1,38.1,0,0,0-9.3-2.7,49.8,49.8,0,0,1-6.9-1.8q-9.3-3.4-16.2-13.5a2.6,2.6,0,0,0-2.3-1.1c-1.1,0-3,.4-3.8,1.7a2.2,2.2,0,0,0-.2,2.1c.6,1.6,1.3,3.1,1.9,4.7,3.4,8.4,7,17,13.3,23.7q7.1,7.5,19.5,7.5h0a63.3,63.3,0,0,0,8.3-.7h.1c.8-.1,2.9-.6,3.3-2.3C64.5,146.7,64.8,139.4,55.5,135.2Zm3.9,15.9h-.2a44,44,0,0,1-7.7.7h0c-7.2,0-12.6-2-16.6-6.2-5.8-6.2-9.2-14.5-12.5-22.5,0-.1,0-.2-.1-.2a37.4,37.4,0,0,0,15.6,11.6,75,75,0,0,0,7.5,1.9,38,38,0,0,1,8.5,2.4C59.1,141.2,60.7,144.6,59.4,151.1Z"/><path class="cls-1" d="M118,192.1a97.3,97.3,0,0,0-12.1-1.3c-4.9,3.8-7.3,9.4-8.2,15.4l-.2,3.2c1.4-1.7,5.4-6.7,7-8.2A43.4,43.4,0,0,1,118,192.1Z"/><path class="cls-1" d="M86.2,191.6c-4.8,3.8-7.8,10.1-9.4,16.1,7.4-6.2,15.2-13.5,24.2-17.1A106.2,106.2,0,0,0,86.2,191.6Z"/><path class="cls-1" d="M178.5,170.7h.7l1.2-.4a5.4,5.4,0,0,0,3.5-.3l1.1-.4h.6a2.8,2.8,0,0,0,1.5-1c1.2-.7,2.2-1.6,2.3-2.6s-1.2-3-2.9-3.1l-.8-.2-2.2.6h-1.2a12.7,12.7,0,0,1-2.1-1.5c-1.3-1.1-2.6-2.3-4.3-2-6.1,1.2.1,8.5,1.8,10.9l.5.2Zm7-2.7-.8.5h0l.7-.4v-.3h.2Zm-2.4-.8h0l.9-1.3h.1Zm-.5,2.2h0Zm-1.2-5.1-.5.5h0l.2-.2.3-.2Zm-.4,4.6h0Zm-3.9-7.5a2.4,2.4,0,0,0-1.1-.6c.3-.2.8.2,1.3.7Z"/><path class="cls-1" d="M158,165.6a1.3,1.3,0,0,0-1.1-.5c-.5,0-1.3.2-1.5.7a.6.6,0,0,0,0,.8c10.7,17.6,27.8,20.1,44.4,21.2h.1a1.3,1.3,0,0,0,1.4-1.1c0-.4-.3-.8-1.1-.9C184.5,184.8,168.2,182.4,158,165.6Z"/><path class="cls-1" d="M152.9,129.6l-3.2-1.7c-8.5-4.3-14.2-10.5-20-18.4a28.9,28.9,0,0,0-9,7.2c-9.8,11.7-9.6,24.2.4,37a30,30,0,0,1,18.5-3.1l3.3.5a84.1,84.1,0,0,0,15.5,1.9c5.2,0,8.6-1,10.1-3.1s1.3-3.9.3-6.9C166.7,136.3,159.4,132.7,152.9,129.6Zm7.4,17c-1.5.1-2.9.4-4.3.4h0c-6.7,0-11.9-1.9-14.9-5s-3.3-6-3.1-10.2c.1-1.2,1.6-1.8,3-1.8a2,2,0,0,1,1.6.6,1.2,1.2,0,0,1,.3.9c-.2,3.4.6,6.1,2.5,8.1s8,3.8,11.8,3.8l3.5-.2h.4c1.6,0,1.7,1.1,1.7,1.3S161.3,146.5,160.3,146.6Z"/><path class="cls-1" d="M225,190.9c6.6,4.6,14.1,9.9,16,18,7.5-.8,13.3-3.5,17.3-8.1,7.8-9.1,8.2-21.7,1.1-38.6a60.2,60.2,0,0,1-14.8,2.3,36.6,36.6,0,0,1-8.1-.9l-4.5-1.3c-5.1-1.5-12.7-3.8-18.4-3.8-4,0-6.3,1-7.2,3.1-4.5,10.5,6.7,20.4,15.6,27C222.9,189.4,224,190.1,225,190.9Zm-13.7-24.8c.1-1.3,1.6-2,3-2a2.1,2.1,0,0,1,1.6.6,1.2,1.2,0,0,1,.3,1,9.5,9.5,0,0,0,2.9,7,15.4,15.4,0,0,0,10.7,4.8,9.4,9.4,0,0,0,4.5-1.1,3.1,3.1,0,0,1,1.5-.4c.9,0,2,.3,2.2,1.2s.1,1.2-1,1.9a15.7,15.7,0,0,1-7.5,1.8h0c-5.6,0-11.5-2.4-14.9-6A12,12,0,0,1,211.3,166.1Z"/><path class="cls-1" d="M302.7,221.5a5.1,5.1,0,0,0-.3-4.8,6.7,6.7,0,0,0-5.6-2.4c-2.7,0-6,1.1-7.8,3.3a26,26,0,0,1,1.5,4.2l1.5-.2v-1.4c.7-1,2.7-1.9,4.8-1.9a3,3,0,0,1,2.3.7,1.5,1.5,0,0,1-.1,1.1,8.4,8.4,0,0,1-4.8,4.6l-1.4.6.3,1.6c2,11,1.2,22.3.3,33.2s-1.7,23.2.6,34.8a2.2,2.2,0,0,1-.1.8l-1.2,3,3.3-.3h.8a3,3,0,0,1,2.3.7,1.5,1.5,0,0,1-.1,1.1c-1.7,4.3-6.6,5.4-8.6,5.7l-2.2.2h-1.1l-1.8.2v1.4c-.7,1.1-2.8,1.9-4.8,1.9a3.4,3.4,0,0,1-2.3-.6,1.5,1.5,0,0,1,.1-1.1,7.5,7.5,0,0,1,2.1-3l1.5-1.3-1.4-1.5a1.3,1.3,0,0,1-.3-.5,78.1,78.1,0,0,1-1.3-13.4v-1.5l-1.5-.4h-.6c-28.8-9.1-55.6-23.9-81.5-38.1s-53.1-29.2-82.1-38.4a9.9,9.9,0,0,1-2.3-1h-.4l-6.6-2.1-1.3,1.5c-.5.6-.9,1.2-1.4,1.7,2.8,1.1,5.5,2,7.9,2.7a11,11,0,0,0,2.9,1.2c28.7,9.1,55.4,23.8,81.3,38.1s52.8,29,81.7,38.2a79.5,79.5,0,0,0,1.4,12.6c.1.2.1.5.2.8a11.3,11.3,0,0,0-1.9,3.2c-.9,2.3-.4,3.9.3,4.8s3,2.4,5.6,2.4,6.3-1.1,8-3.6a9.7,9.7,0,0,0,2.4-.2c5.8-.8,10.1-3.7,11.8-8.1a5.2,5.2,0,0,0-.3-4.9,5.8,5.8,0,0,0-4.4-2.3.4.4,0,0,1-.1-.3c-2.2-11.1-1.3-22.6-.5-33.7s1.7-21.8-.1-32.8A11.9,11.9,0,0,0,302.7,221.5Z"/><path class="cls-1" d="M280.6,252.2l-1.9,1.8,1.9.6Z"/><path class="cls-1" d="M99.6,162.5a6.7,6.7,0,0,1,4.5,1.4,18,18,0,0,1,2,1.9l4.9-.7a58.1,58.1,0,0,0-4.3-4.3,10.8,10.8,0,0,0-7.1-2.3c-6.1,0-14,3.8-16.1,9.4a7.1,7.1,0,0,0,.7,6.5l3.4-2a3.7,3.7,0,0,1-.4-3.1C88.5,165.8,94.5,162.5,99.6,162.5Z"/></svg>